<?xml version="1.0" standalone="no"?>
<!DOCTYPE svg PUBLIC "-//W3C//DTD SVG 20010904//EN"
 "http://www.w3.org/TR/2001/REC-SVG-20010904/DTD/svg10.dtd">
<svg version="1.0" xmlns="http://www.w3.org/2000/svg"
 width="664.000000pt" height="664.000000pt" viewBox="0 0 664.000000 664.000000"
 preserveAspectRatio="xMidYMid meet">
<metadata>
Created by potrace 1.11, written by Peter Selinger 2001-2013
</metadata>
<g transform="translate(0.000000,664.000000) scale(0.100000,-0.100000)"
fill="#000000" stroke="none">
<path d="M3655 6534 c-168 -93 -264 -136 -401 -183 -119 -39 -278 -89 -311
-96 -27 -6 -210 -70 -281 -99 -159 -63 -389 -201 -510 -303 -69 -59 -156 -155
-180 -198 -14 -25 -15 -20 -36 114 -9 58 -22 111 -28 118 -32 39 -39 31 -414
-542 -89 -137 -137 -277 -179 -524 -48 -285 -66 -508 -80 -986 -3 -104 -13
-282 -21 -395 -16 -208 -9 -351 18 -390 6 -8 -7 4 -28 27 -72 76 -110 81 -176
24 -86 -76 -119 -201 -138 -516 -24 -412 -4 -584 77 -659 18 -17 39 -26 60
-26 60 0 61 -2 62 -121 1 -60 3 -124 5 -141 3 -18 7 -62 11 -98 14 -146 87
-396 150 -514 79 -149 223 -306 420 -459 73 -56 222 -157 232 -157 4 0 14 -6
22 -14 45 -39 227 -132 371 -189 199 -78 401 -120 663 -138 271 -18 587 20
892 106 50 15 95 27 100 29 111 28 292 124 390 205 67 56 171 169 236 257 75
100 214 323 257 410 25 52 28 54 57 48 16 -3 35 -10 40 -14 39 -29 119 -9 174
43 54 52 125 167 175 287 26 62 45 114 42 117 -2 2 -7 -6 -11 -19 -18 -55
-128 -264 -162 -305 -80 -98 -163 -128 -219 -79 l-28 23 33 79 c19 44 48 122
66 174 18 52 59 149 90 215 31 66 64 138 73 160 36 93 97 158 186 200 29 14
61 34 71 45 30 33 44 25 38 -22 -8 -71 -43 -207 -79 -307 -19 -52 -32 -96 -30
-98 2 -2 10 13 16 34 7 21 18 49 26 63 41 80 83 259 84 360 0 100 -14 144 -61
191 -46 46 -65 48 -138 14 -30 -14 -56 -23 -58 -21 -3 2 1 16 9 30 81 156 168
353 168 383 0 7 5 13 11 13 5 0 8 4 5 9 -4 5 -2 20 3 33 5 12 9 26 10 31 0 4
7 23 15 42 9 20 15 36 15 38 0 1 2 9 4 17 185 593 247 867 247 1083 0 270
-108 735 -272 1167 -70 185 -89 210 -108 143 -9 -34 -53 -213 -65 -270 -3 -12
-9 -32 -14 -45 -7 -20 -9 -18 -16 22 -7 48 -42 187 -69 281 -9 31 -18 65 -21
75 -10 49 -130 419 -162 499 -45 114 -91 205 -102 205 -12 0 -51 -49 -51 -64
0 -6 -16 -42 -34 -81 -38 -80 -41 -77 -50 55 -8 105 -72 539 -85 573 -18 46
-45 35 -103 -43 l-53 -71 -7 32 c-6 34 -25 52 -43 42 -5 -4 -76 -51 -157 -105
-81 -53 -183 -115 -226 -137 -80 -40 -260 -104 -272 -96 -4 2 -3 30 3 62 5 32
10 137 11 233 1 168 0 175 -19 178 -11 1 -74 -27 -140 -64z m-690 -1776 c268
-90 629 -172 835 -189 286 -24 541 -58 611 -83 138 -48 464 -249 557 -343 95
-97 167 -280 193 -493 12 -95 6 -649 -7 -715 -4 -16 -7 -36 -7 -42 0 -7 -4
-13 -8 -13 -4 0 -5 -8 -2 -19 2 -10 -2 -25 -11 -33 -8 -9 -12 -19 -8 -22 3 -4
0 -11 -8 -17 -13 -8 -13 -10 0 -19 13 -9 13 -10 0 -11 -8 -1 -19 -1 -24 0 -5
1 -3 -6 5 -15 10 -13 11 -18 2 -21 -7 -2 -9 -11 -6 -19 3 -8 0 -14 -7 -14 -7
0 -9 -8 -5 -20 4 -11 2 -20 -4 -20 -6 0 -8 -6 -5 -14 3 -8 1 -17 -5 -20 -6 -4
-8 -13 -4 -21 3 -8 0 -15 -7 -15 -7 0 -10 -6 -7 -14 3 -8 3 -17 -1 -21 -3 -3
-7 -16 -9 -28 -2 -23 -10 -62 -13 -62 -1 0 -4 -11 -6 -25 -8 -47 -11 -65 -14
-65 -1 0 -3 -11 -4 -25 -2 -14 -7 -34 -11 -44 -6 -14 -5 -17 4 -11 10 6 11 3
3 -11 -5 -11 -13 -41 -17 -69 -11 -75 -13 -85 -24 -145 -19 -107 -28 -155 -31
-155 -1 0 -3 -9 -4 -20 -3 -23 -14 -79 -22 -115 -3 -14 -8 -36 -11 -50 -2 -14
-7 -32 -10 -40 -3 -8 -7 -24 -8 -35 -1 -11 -12 -49 -25 -85 -12 -36 -24 -72
-25 -80 -2 -8 -4 -16 -4 -17 -1 -2 -2 -6 -2 -10 -11 -55 -122 -307 -145 -331
-8 -7 -14 -18 -14 -23 0 -11 -41 -72 -52 -77 -5 -2 -8 -9 -8 -16 0 -12 -119
-173 -170 -230 -15 -17 -48 -55 -72 -83 -24 -29 -71 -76 -104 -104 -32 -29
-60 -56 -62 -60 -2 -5 -9 -9 -15 -9 -7 0 -25 -14 -41 -30 -16 -17 -35 -30 -42
-30 -7 0 -19 -8 -26 -19 -7 -10 -24 -22 -38 -26 -14 -4 -27 -11 -30 -15 -9
-13 -154 -82 -235 -112 -352 -131 -478 -157 -719 -152 -203 5 -453 43 -626 96
-71 22 -243 95 -330 141 -51 27 -159 105 -221 159 -15 13 -51 43 -80 68 -93
79 -279 273 -279 291 0 5 -11 21 -25 36 -44 49 -55 63 -49 63 4 0 -5 15 -18
33 -14 17 -28 42 -32 55 -4 12 -11 22 -15 22 -6 0 -32 43 -36 60 0 3 -9 20
-18 37 -10 18 -14 33 -10 33 5 0 2 4 -4 8 -7 4 -14 18 -16 30 -2 12 -6 25 -10
28 -4 4 -7 13 -7 20 0 7 -5 25 -12 41 -6 15 -12 30 -13 33 -1 3 -7 18 -14 34
-6 16 -10 35 -7 42 3 8 1 16 -3 18 -5 3 -14 34 -21 68 -6 35 -14 72 -16 83 -5
22 -11 55 -21 125 -16 114 -9 282 21 485 8 55 18 120 21 145 3 25 13 81 21
125 9 44 17 91 20 105 2 14 7 39 11 55 3 17 8 37 9 45 2 8 6 29 9 45 4 17 8
46 10 65 1 19 8 60 15 90 7 30 13 65 13 78 1 12 4 22 7 22 3 0 6 8 7 18 1 9 4
33 8 52 3 19 8 49 10 65 1 17 4 30 5 30 3 0 10 39 15 85 9 81 35 180 94 359
91 275 220 596 282 702 123 212 292 374 412 398 212 42 392 60 592 57 133 -1
159 -5 230 -28z m-1773 -1689 l60 -61 -17 -76 c-36 -168 -67 -287 -75 -296 -9
-9 -11 -4 -30 104 -16 88 -44 158 -81 203 -37 45 -59 48 -59 8 0 -18 17 -52
49 -95 28 -37 56 -84 63 -104 28 -80 6 -794 -26 -814 -6 -4 -28 -8 -48 -8 -51
0 -91 49 -115 144 -32 125 -19 597 22 802 21 103 69 202 114 232 54 35 75 29
143 -39z m4197 -784 c16 -8 38 -34 50 -58 24 -50 32 -138 14 -144 -7 -3 -13 2
-13 11 0 69 -152 -17 -243 -137 -21 -28 -47 -57 -58 -65 -18 -12 -19 -10 -14
45 6 68 20 151 41 245 14 62 17 67 42 66 15 0 50 11 77 26 59 30 67 31 104 11z"/>
<path d="M1953 3745 c-91 -28 -203 -113 -203 -154 0 -42 38 -46 155 -16 101
25 112 26 188 15 139 -20 245 -47 429 -110 97 -33 192 -60 210 -60 60 0 108
78 75 121 -12 15 -153 80 -257 118 -243 88 -481 123 -597 86z"/>
<path d="M3749 3357 c-41 -31 -24 -112 28 -137 17 -8 109 -18 231 -26 342 -22
502 -58 619 -138 122 -84 129 -87 157 -80 37 9 40 36 12 91 -90 176 -255 256
-598 293 -138 14 -429 13 -449 -3z"/>
<path d="M1823 3030 c-61 -13 -154 -61 -177 -92 -16 -23 -17 -30 -6 -43 7 -9
16 -12 19 -7 23 34 176 92 243 92 l27 0 -26 -57 c-21 -47 -26 -74 -26 -138 -1
-124 6 -132 143 -178 185 -61 242 -62 331 -1 29 19 58 33 66 30 15 -6 18 -62
3 -71 -15 -10 -12 -25 6 -25 31 0 89 89 106 160 l12 50 29 -27 c16 -16 40 -47
54 -70 30 -51 37 -54 28 -10 -11 53 -50 110 -119 175 -112 104 -248 172 -415
208 -71 15 -230 17 -298 4z m307 -61 c45 -10 50 -13 50 -38 0 -63 -84 -87
-127 -37 -22 26 -30 65 -16 79 9 10 34 9 93 -4z"/>
<path d="M3820 2607 c-99 -30 -196 -84 -234 -130 -38 -48 -28 -57 21 -18 36
28 131 77 137 69 2 -1 -1 -34 -6 -73 -8 -57 -7 -81 6 -127 19 -64 12 -60 206
-112 144 -39 186 -34 284 33 38 26 46 29 56 16 8 -9 10 -28 6 -50 -5 -27 -4
-35 8 -35 53 0 124 173 111 273 -2 15 2 27 8 27 34 0 197 -140 197 -170 0 -16
30 -12 36 5 18 46 -89 161 -204 219 -132 66 -227 88 -402 92 -139 4 -163 2
-230 -19z m223 -39 c2 -7 -9 -27 -24 -44 -23 -24 -36 -30 -58 -26 -36 5 -76
45 -68 66 8 21 143 23 150 4z"/>
<path d="M2616 1965 c-23 -51 -18 -158 10 -207 47 -81 215 -156 359 -160 176
-6 253 26 304 127 31 59 34 152 8 200 l-16 30 -1 -38 c0 -46 -37 -120 -80
-164 -60 -61 -188 -79 -319 -47 -170 43 -229 107 -244 269 l-3 30 -18 -40z"/>
<path d="M2034 1556 c-7 -18 8 -47 62 -117 96 -125 291 -265 382 -274 21 -2
96 -18 167 -35 72 -17 180 -40 240 -51 61 -11 133 -26 162 -34 142 -41 430 14
571 109 92 61 47 93 -133 95 -96 0 -137 5 -430 50 -135 20 -318 56 -370 72
-16 5 -88 24 -160 44 -175 47 -302 89 -380 125 -70 33 -103 38 -111 16z m399
-175 c116 -37 345 -97 402 -106 22 -3 56 -10 75 -15 45 -12 242 -37 350 -46
86 -6 149 -27 151 -48 0 -6 2 -25 4 -42 7 -46 -21 -55 -142 -43 -282 26 -675
105 -886 178 -32 11 -65 17 -75 14 -9 -3 -14 -2 -10 2 5 5 -6 16 -22 26 -21
13 -30 27 -30 44 0 14 -1 28 -1 33 -2 9 63 42 76 38 6 -2 54 -18 108 -35z"/>
</g>
</svg>
